<?xml version="1.0" encoding="utf-8"?>
<!-- Generator: Adobe Illustrator 14.0.0, SVG Export Plug-In . SVG Version: 6.00 Build 43363)  -->
<!DOCTYPE svg PUBLIC "-//W3C//DTD SVG 1.1//EN" "http://www.w3.org/Graphics/SVG/1.1/DTD/svg11.dtd">
<svg version="1.1" id="Layer_1" xmlns="http://www.w3.org/2000/svg" xmlns:xlink="http://www.w3.org/1999/xlink" x="0px" y="0px"
	 width="374.796px" height="51.219px" viewBox="0 0 374.796 51.219" enable-background="new 0 0 374.796 51.219"
	 xml:space="preserve">
<g>
	<path fill="#E26111" d="M52.46,47.997h-6.72l-5.22-13.2l-4.439-13.259l-4.38,13.379l-5.1,13.08h-6.72L4.462,5.998h8.88
		l9.899,30.299l10.2-30.299h5.16l10.5,30.299l9.6-30.299h8.88L52.46,47.997z"/>
	<path fill="#E26111" d="M83.301,13.198H69.982v-7.2c12.12,0,22.379,0,34.559,0v7.2H91.221v34.798h-7.92V13.198z"/>
	<path fill="#2C3641" d="M140.3,47.997V28.917h-26.759v19.079h-3.24V5.998h3.24v19.979H140.3V5.998h3.24v41.999H140.3z"/>
	<path fill="#2C3641" d="M193.339,27.058c-0.06,11.04-7.08,21.659-21.179,21.659c-14.1,0-21.179-10.68-21.179-21.779
		c0-11.28,7.02-21.599,21.179-21.599C186.32,5.338,193.399,15.718,193.339,27.058z M154.161,26.998
		c0.06,9.479,6.06,18.719,18,18.719c12,0,18.059-9.24,18.059-18.719c0-9.72-6-18.659-18.059-18.659S154.101,17.098,154.161,26.998z"
		/>
	<path fill="#2C3641" d="M233.179,5.998v26.099c0,21.959-32.159,22.019-32.159,0V5.998h3.18v26.099c0,18.059,25.799,18,25.799,0
		V5.998H233.179z"/>
	<path fill="#2C3641" d="M269.24,14.098c-3.061-4.92-7.98-5.64-12.72-5.7c-4.92,0-12.72,1.8-12.72,8.52c0,5.34,5.76,6.6,12.84,7.919
		c8.1,1.56,16.499,3,16.499,12.06c-0.06,9.479-9.6,11.76-16.619,11.76c-6.54,0-13.979-2.7-17.22-9.12l2.88-1.44
		c2.58,5.1,9.18,7.62,14.34,7.62c5.159,0,13.379-1.44,13.379-8.88c0.061-6.3-6.899-7.68-13.799-9c-7.68-1.5-15.54-3.06-15.54-10.799
		c-0.18-8.88,9.061-11.64,15.96-11.64c6,0,11.22,0.96,15.359,7.14L269.24,14.098z"/>
	<path fill="#2C3641" d="M280.04,47.997V5.998h3.181v41.999H280.04z"/>
	<path fill="#2C3641" d="M293.9,5.998l28.259,34.739V5.998h3.18v41.999h-1.26l-28.319-34.679v34.679h-3.24V5.998H293.9z"/>
	<path fill="#2C3641" d="M367.757,13.738c-3.66-3.6-8.76-5.399-13.499-5.399c-12.3,0-18.6,9-18.54,18.719
		c0,9.899,6.3,18.419,18.54,18.419c4.499,0,9.18-1.56,12.779-4.86V28.857h-14.64v-2.82h17.699v15.719
		c-4.38,4.38-9.6,6.78-15.839,6.78c-14.28,0-21.659-9.959-21.659-21.419c-0.061-13.139,8.879-21.719,21.659-21.719
		c5.52,0,11.1,2.1,15.359,6.3L367.757,13.738z"/>
</g>
</svg>
